<svg width="37" height="48" fill="none" xmlns="http://www.w3.org/2000/svg"><path d="M13.086 14.269v12.385l9.955 5.729v-12.2l-9.955-5.914z" fill="#98815B"/><path opacity=".15" d="M13.086 18.15c2.353 1.308 6.066 3.396 7.772 4.394.61.355 1.307.726 2.053 1.123l.131.069v-3.552l-9.955-5.914v3.88h-.001z" fill="#333"/><path d="M8.37 46.396s13.16.415 17.521 0c3.965-.378 10.013-3.761 10.013-12.387 0-8.922-9.595-12.62-13.767-15.06-4.173-2.44-9.275-5.158-9.275-5.158v2.182c2.31 1.28 6.473 3.619 8.28 4.675.602.352 1.297.721 2.034 1.112 4.54 2.415 10.759 5.72 10.759 12.247 0 3.32-.986 5.973-2.93 7.882-.211.207-.434.405-.667.59.533-1.058.859-2.242.859-3.465 0-1.903-1.29-3.838-3.833-5.753a24.862 24.862 0 00-3.292-2.075l-11.21-6.09v1.917l.266.153v9.827c0 3.58.15 8.463-4.082 8.463-1.506.001-1.153.94-.677.94zm9.239-16.652l.935.538v12.47a.468.468 0 11-.937 0V29.742h.002zm1.749 1.005l.935.539V42.75a.468.468 0 11-.937 0V30.75h.002zm1.75 1.006l.934.538v10.458a.468.468 0 11-.936 0V31.755h.001zm-5.225-3.004l.99.57V42.75c0 .259-.21.468-.468.468h-.055a.468.468 0 01-.468-.468v-14h.001zm13.345 10.265c0 3.017-2.823 5.777-4.556 5.777-.922 0-1.63-1.433-1.63-3.567v-8.358l.09.052c-.001-.001 6.096 3.08 6.096 6.096zm-14.207-10.76V42.75c0 .26-.21.469-.468.469h-.055a.468.468 0 01-.468-.469v-14.93a.53.53 0 01.018-.125l.973.56z" fill="#98815B"/><path opacity=".09" d="M14.031 29.861v-2.04c0-.044.009-.084.019-.125l.971.558v2.178c.287.165.574.328.862.491V28.75l.99.57v2.165c.248.14.493.276.736.41v-2.152l.935.538v2.135c.278.155.55.304.814.449v-2.117l.935.539v2.091c.289.158.562.307.815.443v-2.067l.935.538v2.035c.589.318.998.536.998.536v-1.997l.023-2.153-10.203-5.616v1.916l.266.154v2.178c.205.114.796.456.904.517z" fill="#000"/><path d="M27.759.336s-13.161-.415-17.522 0C6.273.714.225 4.098.225 12.724c0 8.92 9.594 12.62 13.767 15.06 4.172 2.439 9.274 5.157 9.274 5.157V30.76c-2.309-1.28-6.473-3.619-8.28-4.675a59.14 59.14 0 00-2.033-1.112c-4.541-2.414-10.76-5.72-10.76-12.247 0-3.32.986-5.972 2.931-7.882.21-.207.433-.405.667-.59-.533 1.058-.86 2.242-.86 3.466 0 1.902 1.29 3.837 3.834 5.753a24.863 24.863 0 003.292 2.074l11.209 6.09V19.72L23 19.567V9.74c0-3.58-.149-8.463 4.083-8.463 1.504 0 1.153-.941.676-.941zm-9.24 16.654l-.934-.538V3.982a.468.468 0 11.936 0V16.99h-.001zm-1.748-1.005l-.936-.539V3.982a.468.468 0 11.937 0v12.003h-.001zm-1.75-1.007l-.935-.539V3.981a.468.468 0 11.937 0v10.997h-.002zm5.224 3.005l-.99-.57V3.983c0-.258.21-.467.469-.467h.055c.258 0 .468.209.468.468v13.999h-.002zM6.9 7.717c0-3.016 2.824-5.776 4.556-5.776.923 0 1.63 1.432 1.63 3.567v8.358l-.09-.053c.002.002-6.096-3.08-6.096-6.096zm14.207 10.761V3.982c0-.258.21-.468.469-.468h.055c.258 0 .468.21.468.468v14.93a.53.53 0 01-.018.126l-.974-.56z" fill="#98815B"/></svg>